<svg width="14" height="14" viewBox="0 0 14 14" fill="none" xmlns="http://www.w3.org/2000/svg">
<path fill-rule="evenodd" clip-rule="evenodd" d="M7.00002 1.16667C5.76234 1.16667 4.57536 1.65833 3.70019 2.5335C2.82502 3.40867 2.33335 4.59566 2.33335 5.83333C2.33335 7.64053 3.5092 9.39415 4.79849 10.7551C5.43121 11.4229 6.06591 11.9697 6.54308 12.3497C6.72067 12.4911 6.87578 12.6089 7.00002 12.7007C7.12426 12.6089 7.27937 12.4911 7.45696 12.3497C7.93413 11.9697 8.56883 11.4229 9.20155 10.7551C10.4908 9.39415 11.6667 7.64053 11.6667 5.83333C11.6667 4.59566 11.175 3.40867 10.2999 2.5335C9.42468 1.65833 8.2377 1.16667 7.00002 1.16667ZM7.00002 13.4167C6.67645 13.902 6.6763 13.9019 6.67613 13.9018L6.67446 13.9007L6.67058 13.8981L6.65721 13.8891C6.64585 13.8813 6.62965 13.8703 6.60893 13.8559C6.5675 13.8272 6.50796 13.7854 6.4329 13.7312C6.28284 13.6228 6.0704 13.4646 5.81633 13.2623C5.30913 12.8584 4.63133 12.275 3.95155 11.5574C2.61584 10.1475 1.16669 8.10947 1.16669 5.83333C1.16669 4.28624 1.78127 2.80251 2.87523 1.70854C3.96919 0.614581 5.45292 0 7.00002 0C8.54712 0 10.0308 0.614581 11.1248 1.70854C12.2188 2.80251 12.8334 4.28624 12.8334 5.83333C12.8334 8.10947 11.3842 10.1475 10.0485 11.5574C9.36871 12.275 8.69091 12.8584 8.18371 13.2623C7.92964 13.4646 7.7172 13.6228 7.56714 13.7312C7.49208 13.7854 7.43255 13.8272 7.39111 13.8559C7.37039 13.8703 7.35419 13.8813 7.34283 13.8891L7.32947 13.8981L7.32558 13.9007L7.32435 13.9015C7.32418 13.9016 7.3236 13.902 7.00002 13.4167ZM7.00002 13.4167L7.3236 13.902C7.12765 14.0327 6.87207 14.0324 6.67613 13.9018L7.00002 13.4167Z" fill="white"/>
<path fill-rule="evenodd" clip-rule="evenodd" d="M7.00002 4.66667C6.35569 4.66667 5.83335 5.189 5.83335 5.83333C5.83335 6.47767 6.35569 7 7.00002 7C7.64435 7 8.16669 6.47767 8.16669 5.83333C8.16669 5.189 7.64435 4.66667 7.00002 4.66667ZM4.66669 5.83333C4.66669 4.54467 5.71136 3.5 7.00002 3.5C8.28868 3.5 9.33335 4.54467 9.33335 5.83333C9.33335 7.122 8.28868 8.16667 7.00002 8.16667C5.71136 8.16667 4.66669 7.122 4.66669 5.83333Z" fill="white"/>
</svg>
